<?xml version="1.0" encoding="UTF-8" standalone="no"?>
<svg width="45px" height="45px" viewBox="0 0 45 45" version="1.1" xmlns="http://www.w3.org/2000/svg" xmlns:xlink="http://www.w3.org/1999/xlink" xmlns:sketch="http://www.bohemiancoding.com/sketch/ns">
    <!-- Generator: Sketch 3.1.1 (8761) - http://www.bohemiancoding.com/sketch -->
    <title>share@1x</title>
    <desc>Created with Sketch.</desc>
    <defs></defs>
    <g id="Welcome" stroke="none" stroke-width="1" fill="none" fill-rule="evenodd" sketch:type="MSPage">
        <g id="Game-Alt" sketch:type="MSArtboardGroup" transform="translate(-365.000000, -1316.000000)" fill="#40B1FA">
            <g id="Background-+-Rules-of-the-game-+-Background-+-Rules-of-the-game" sketch:type="MSLayerGroup" transform="translate(148.000000, 1106.000000)">
                <g id="Background-+-Rules-of-the-game" transform="translate(2.000000, 171.000000)" sketch:type="MSShapeGroup">
                    <g id="Share-game-+-Shape" transform="translate(215.000000, 27.000000)">
                        <path d="M36.3640909,40.5627273 C33.7622727,40.5627273 31.4672727,41.8022727 29.9679545,43.7004545 L16.0609091,36.5884091 C16.2429545,35.9093182 16.3738636,35.2077273 16.3738636,34.4693182 C16.3738636,33.6654545 16.2184091,32.9086364 16.0015909,32.1722727 L29.8472727,25.0929545 C31.3384091,27.0770455 33.6927273,28.3738636 36.3661364,28.3738636 C40.8947727,28.3738636 44.5581818,24.7104545 44.5581818,20.1859091 C44.5581818,15.6654545 40.8947727,12 36.3661364,12 C31.8477273,12 28.1802273,15.6654545 28.1802273,20.1859091 C28.1802273,20.9263636 28.3111364,21.63 28.4952273,22.3111364 L14.5922727,29.4231818 C13.0909091,27.5229545 10.7918182,26.2793182 8.18590909,26.2793182 C3.66136364,26.2793182 0,29.9468182 0,34.4693182 C0,38.9918182 3.66136364,42.6572727 8.18590909,42.6572727 C10.8634091,42.6572727 13.2156818,41.3563636 14.7129545,39.3702273 L28.5525,46.4495455 C28.3356818,47.1838636 28.1781818,47.9468182 28.1781818,48.7527273 C28.1781818,53.2752273 31.8456818,56.9406818 36.3640909,56.9406818 C40.8927273,56.9406818 44.5561364,53.2752273 44.5561364,48.7527273 C44.5561364,44.2261364 40.8927273,40.5627273 36.3640909,40.5627273 L36.3640909,40.5627273 Z" id="share"></path>
                    </g>
                </g>
            </g>
        </g>
    </g>
</svg>