<?xml version="1.0" encoding="UTF-8" standalone="no"?>
<svg width="414px" height="652px" viewBox="0 0 414 652" version="1.1" xmlns="http://www.w3.org/2000/svg" xmlns:xlink="http://www.w3.org/1999/xlink" xmlns:sketch="http://www.bohemiancoding.com/sketch/ns">
    <!-- Generator: Sketch 3.1.1 (8761) - http://www.bohemiancoding.com/sketch -->
    <title>Shape</title>
    <desc>Created with Sketch.</desc>
    <defs></defs>
    <g id="Welcome" stroke="none" stroke-width="1" fill="none" fill-rule="evenodd" sketch:type="MSPage">
        <g id="Game" sketch:type="MSArtboardGroup" transform="translate(-232.000000, -636.000000)" fill-opacity="0.66" fill="#40B1FA">
            <path d="M643.432025,1181.44422 C623.379769,1143.59211 627.644811,1153.69389 624.029368,1134.99444 C620.742005,1118.12092 622.395529,1098.60702 621.483466,1078.41004 C620.118653,1047.87482 617.264356,1015.78296 617.264356,988.873355 C617.264356,965.228104 607.402268,957.7076 602.074248,942.423573 C594.324996,920.170764 588.111158,899.822712 577.606034,889.208621 C564.869964,876.328528 550.906875,884.505844 550.906875,884.505844 C541.707509,860.670117 539.292839,854.601169 529.607915,842.831089 C520.303563,831.501072 506.255173,833.031446 506.255173,833.031446 C506.255173,833.031446 499.372053,798.818081 483.650454,781.550479 C475.264727,772.3354 457.974906,772.44049 451.465797,775.59319 C446.761128,777.885465 440.455428,785.22863 433.854457,790.056202 C421.164318,799.336963 405.856101,816.703086 405.829855,816.735927 L405.829855,816.735927 C405.829855,816.735927 403.23146,808.808199 395.994013,794.647321 C394.025532,790.7984 391.459946,786.535687 388.65158,782.056225 C403.336446,766.594858 412.40458,745.74106 412.40458,722.726349 C412.40458,675.100872 373.835483,636.5 326.276992,636.5 C278.698816,636.5 240.149404,675.100872 240.149404,722.726349 C240.149404,769.222108 276.940306,807.021669 322.969944,808.775359 C327.051261,820.89355 332.011832,834.115186 336.349051,845.267863 C344.432944,866.05598 351.237326,883.021447 355.108671,904.867032 C357.943283,920.88669 356.270075,939.205191 355.581106,954.508923 C354.997124,967.500675 354.03913,980.019522 352.536523,990.305206 C350.482742,1004.34786 346.033975,1014.21318 343.658675,1020.51858 C341.880481,1025.22793 342.182315,1029.19508 342.182315,1029.19508 C342.182315,1029.19508 338.914637,1029.14253 335.030169,1030.41675 C331.152262,1031.69753 328.698223,1034.96189 328.698223,1034.96189 L322.248168,1030.62036 C322.248168,1030.62036 323.462064,1028.27554 322.248168,1024.07851 C320.929286,1019.50052 318.626164,1013.07033 315.371609,1004.45952 C314.046166,1000.94557 312.779776,993.950516 311.743043,990.640181 C309.006855,981.88487 305.397974,978.640216 305.397974,978.640216 C305.397974,978.640216 309.138087,966.620546 304.125023,953.602522 C298.86918,939.967094 287.320761,921.628888 274.479705,909.46472 C263.902403,899.441761 255.280458,896.821079 246.133585,898.206953 C234.749205,899.93437 230.398863,913.136302 232.518261,927.041023 C233.797773,935.448224 237.537886,946.751967 238.423702,952.564758 C240.529977,966.436639 232.88571,982.843816 233.167859,992.407006 C233.535309,1004.80106 239.985364,1011.67132 245.897367,1037.85187 C248.003641,1047.20488 254.105931,1057.43802 256.901174,1068.15063 C261.041544,1083.97981 263.580884,1099.07993 265.418133,1102.89601 C275.168674,1123.09956 313.862441,1148.47223 349.800335,1181.44422 C370.042877,1200.01888 393.999286,1200.11083 410.547646,1216.91867 C420.685321,1227.20435 426.256122,1244.41284 436.702192,1259.99243 C480.008765,1324.5571 606.897025,1261.47683 640.243086,1213.6149 C648.169502,1202.25861 646.548786,1187.33583 643.432025,1181.44422 L643.432025,1181.44422 Z M250.956362,722.726349 C250.956362,681.084435 284.663312,647.324271 326.27043,647.324271 C367.877548,647.324271 401.584498,681.084435 401.584498,722.726349 C401.584498,741.872434 394.399544,759.297671 382.647715,772.598125 C379.294736,767.343624 375.882703,761.924921 372.785627,756.499649 C379.68187,747.008708 383.789433,735.363422 383.789433,722.726349 C383.789433,690.916918 358.035145,665.143594 326.263869,665.137026 C294.492592,665.137026 268.744865,690.916918 268.744865,722.726349 C268.744865,750.299339 288.121276,773.320618 313.987111,778.949502 C315.476595,784.236843 317.025133,789.609569 318.632725,795.126794 C318.882066,795.980651 319.170777,796.89362 319.439802,797.773749 C281.041307,794.318915 250.956362,762.049715 250.956362,722.726349 L250.956362,722.726349 Z M366.466804,744.47998 C353.520763,718.174638 344.124549,691.705093 319.774444,698.96944 C312.497627,701.143489 305.115825,708.453813 303.954422,720.466914 C302.812703,732.151609 305.771985,747.816588 310.358545,765.550526 C292.976861,759.074355 280.575434,742.371612 280.575434,722.726349 C280.575434,697.458771 301.034509,676.979356 326.27043,676.979356 C351.506351,676.979356 371.965427,697.458771 371.958865,722.726349 C371.958865,730.601531 369.9707,738.010377 366.466804,744.47998 L366.466804,744.47998 Z" id="Shape" sketch:type="MSShapeGroup"></path>
        </g>
    </g>
</svg>